<svg id="Section:_Experience" data-name="Section: Experience" xmlns="http://www.w3.org/2000/svg" viewBox="0 0 113.99054 19.84961"><defs><style>.cls-1,.cls-2{fill:#192367;}.cls-2{font-size:18px;font-family:Raleway-Regular, Raleway;}.cls-3{letter-spacing:-0.00499em;}</style></defs><path id="Breifcase_Icon" data-name="Breifcase Icon" class="cls-1" d="M13.59011,5.42907H8.64986V4.28633h4.94025Zm5.55718,0H16.05975V3.71454A1.8326,1.8326,0,0,0,14.208,2H8.03291A1.83284,1.83284,0,0,0,6.1802,3.71454V5.42907H3.09266A1.8325,1.8325,0,0,0,1.2409,7.14275V10H21V7.14275a1.83274,1.83274,0,0,0-1.85271-1.71368m-5.55718,7.42818a.59585.59585,0,0,1-.6179.57185H9.26774a.59643.59643,0,0,1-.61788-.57185V11.14271H1.2409v5.14275A1.8326,1.8326,0,0,0,3.09266,18H19.14729A1.83284,1.83284,0,0,0,21,16.28546V11.14271H13.59011Z" transform="translate(-1.2409 -2)"/><text class="cls-2" transform="translate(20.62595 15.83545)">Experien<tspan class="cls-3" x="73.00684" y="0">c</tspan><tspan x="82.79883" y="0">e</tspan></text></svg>