<svg id="Layer_2" data-name="Layer 2" xmlns="http://www.w3.org/2000/svg" xmlns:xlink="http://www.w3.org/1999/xlink" viewBox="0 0 610.60799 45.07257"><defs><style>.cls-1{fill:none;}.cls-2{clip-path:url(#clip-path);}.cls-3{fill:url(#linear-gradient);}.cls-4{font-size:12px;font-family:Helvetica-Bold, Helvetica;font-weight:700;}.cls-4,.cls-7{fill:#fff;}.cls-5{clip-path:url(#clip-path-2);}.cls-6{fill:#d27c47;}</style><clipPath id="clip-path" transform="translate(0 0.47256)"><rect class="cls-1" width="565.20001" height="44.6"/></clipPath><linearGradient id="linear-gradient" x1="570.11038" y1="818.25618" x2="571.11038" y2="818.25618" gradientTransform="matrix(-565.20001, 0, 0, 565.20001, 322791.59615, -462455.63061)" gradientUnits="userSpaceOnUse"><stop offset="0" stop-color="#d27c47"/><stop offset="0.00209" stop-color="#d27c47"/><stop offset="0.5385" stop-color="#d1479c"/><stop offset="0.59987" stop-color="#c8489f"/><stop offset="0.69992" stop-color="#b04ba9"/><stop offset="0.8262" stop-color="#8850b8"/><stop offset="0.97248" stop-color="#5256cd"/><stop offset="0.99636" stop-color="#4857d1"/><stop offset="1" stop-color="#4857d1"/></linearGradient><clipPath id="clip-path-2" transform="translate(0 0.47256)"><rect class="cls-1" x="562.67999" y="-0.47207" width="49.32001" height="46.48151"/></clipPath></defs><g class="cls-2"><rect class="cls-3" y="0.47257" width="565.20001" height="44.6"/></g><text class="cls-4" transform="translate(69.74612 20.66117)">jeremyplatt.me</text><text class="cls-4" transform="translate(69.74612 35.66117)">recruit@jeremyplatt.me </text><text class="cls-4" transform="translate(306.00015 37.06559)">linkedin.com/in/j</text><text class="cls-4" transform="translate(400.00796 37.06559)">eremy-platt-uxdesign/ </text><g id="https:_jeremyplatt.me" data-name="https://jeremyplatt.me"><g class="cls-5"><rect class="cls-6" x="565.78599" y="0.001" width="1.793" height="10.745"/><rect class="cls-6" x="565.78599" y="10.746" width="1.793" height="1.793"/><rect class="cls-6" x="565.78599" y="14.332" width="1.793" height="1.793"/><rect class="cls-6" x="565.78599" y="19.71" width="1.793" height="10.757"/><rect class="cls-6" x="565.78599" y="32.26" width="1.793" height="3.586"/><rect class="cls-6" x="565.78599" y="35.846" width="1.793" height="5.379"/><rect class="cls-6" x="565.78599" y="41.225" width="1.793" height="3.586"/><rect class="cls-6" x="567.57899" y="0.001" width="1.793" height="1.781"/><rect class="cls-6" x="567.57899" y="10.746" width="1.793" height="1.793"/><rect class="cls-6" x="567.57899" y="17.917" width="1.793" height="1.793"/><rect class="cls-6" x="567.57899" y="19.71" width="1.793" height="1.793"/><rect class="cls-6" x="567.57899" y="23.296" width="1.793" height="3.586"/><rect class="cls-6" x="567.57899" y="32.26" width="1.793" height="1.793"/><rect class="cls-6" x="567.57899" y="43.018" width="1.793" height="1.793"/><rect class="cls-6" x="569.37099" y="0.001" width="1.793" height="1.781"/><rect class="cls-6" x="569.37199" y="3.574" width="1.793" height="5.379"/><rect class="cls-6" x="569.37199" y="10.746" width="1.793" height="1.793"/><rect class="cls-6" x="569.37199" y="16.125" width="1.793" height="1.793"/><rect class="cls-6" x="569.37199" y="19.71" width="1.793" height="7.171"/><rect class="cls-6" x="569.37199" y="28.675" width="1.793" height="1.793"/><rect class="cls-6" x="569.37199" y="32.26" width="1.793" height="1.793"/><rect class="cls-6" x="569.37199" y="35.846" width="1.793" height="5.379"/><rect class="cls-6" x="569.37199" y="43.018" width="1.793" height="1.793"/><rect class="cls-6" x="571.16399" y="0.001" width="1.794" height="1.781"/><rect class="cls-6" x="571.16499" y="3.574" width="1.793" height="5.379"/><rect class="cls-6" x="571.16499" y="10.746" width="1.793" height="1.793"/><rect class="cls-6" x="571.16499" y="14.332" width="1.793" height="1.793"/><rect class="cls-6" x="571.16499" y="17.917" width="1.793" height="1.793"/><rect class="cls-6" x="571.16499" y="19.71" width="1.793" height="1.793"/><rect class="cls-6" x="571.16499" y="23.296" width="1.793" height="5.379"/><rect class="cls-6" x="571.16499" y="32.26" width="1.793" height="1.793"/><rect class="cls-6" x="571.16499" y="35.846" width="1.793" height="5.379"/><rect class="cls-6" x="571.16499" y="43.018" width="1.793" height="1.793"/><rect class="cls-6" x="572.95799" y="0.001" width="1.793" height="1.781"/><rect class="cls-6" x="572.95799" y="3.574" width="1.793" height="5.379"/><rect class="cls-6" x="572.95799" y="10.746" width="1.793" height="1.793"/><rect class="cls-6" x="572.95799" y="14.332" width="1.793" height="3.586"/><rect class="cls-6" x="572.95799" y="23.296" width="1.793" height="1.793"/><rect class="cls-6" x="572.95799" y="28.675" width="1.793" height="1.793"/><rect class="cls-6" x="572.95799" y="32.26" width="1.793" height="1.793"/><rect class="cls-6" x="572.95799" y="35.846" width="1.793" height="5.379"/><rect class="cls-6" x="572.95799" y="43.018" width="1.793" height="1.793"/><rect class="cls-6" x="574.75099" y="0.001" width="1.793" height="1.781"/><rect class="cls-6" x="574.74999" y="10.746" width="1.793" height="1.793"/><rect class="cls-6" x="574.74999" y="14.332" width="1.793" height="1.793"/><rect class="cls-6" x="574.74999" y="17.917" width="1.793" height="1.793"/><rect class="cls-6" x="574.74999" y="21.503" width="1.793" height="1.793"/><rect class="cls-6" x="574.74999" y="26.882" width="1.793" height="3.586"/><rect class="cls-6" x="574.74999" y="32.26" width="1.793" height="1.793"/><rect class="cls-6" x="574.74999" y="43.018" width="1.793" height="1.793"/><rect class="cls-6" x="576.54399" y="0.001" width="1.793" height="10.745"/><rect class="cls-6" x="576.54299" y="10.746" width="1.793" height="1.793"/><rect class="cls-6" x="576.54299" y="14.332" width="1.793" height="1.793"/><rect class="cls-6" x="576.54299" y="17.917" width="1.793" height="1.793"/><rect class="cls-6" x="576.54299" y="21.503" width="1.793" height="1.793"/><rect class="cls-6" x="576.54299" y="25.089" width="1.793" height="1.793"/><rect class="cls-6" x="576.54299" y="28.675" width="1.793" height="1.793"/><rect class="cls-6" x="576.54299" y="32.26" width="1.793" height="3.586"/><rect class="cls-6" x="576.54299" y="35.846" width="1.793" height="5.379"/><rect class="cls-6" x="576.54299" y="41.225" width="1.793" height="3.586"/><rect class="cls-6" x="578.33599" y="14.332" width="1.793" height="1.793"/><rect class="cls-6" x="578.33599" y="17.917" width="1.793" height="1.793"/><rect class="cls-6" x="578.33599" y="19.71" width="1.793" height="1.793"/><rect class="cls-6" x="578.33599" y="23.296" width="1.793" height="3.586"/><rect class="cls-6" x="578.33599" y="28.675" width="1.793" height="1.793"/><rect class="cls-6" x="580.12899" width="1.793" height="5.367"/><rect class="cls-6" x="580.12899" y="7.16" width="1.793" height="1.793"/><rect class="cls-6" x="580.12899" y="10.746" width="1.793" height="1.793"/><rect class="cls-6" x="580.12899" y="14.332" width="1.793" height="1.793"/><rect class="cls-6" x="580.12899" y="17.917" width="1.793" height="1.793"/><rect class="cls-6" x="580.12899" y="21.503" width="1.793" height="5.379"/><rect class="cls-6" x="580.12899" y="28.675" width="1.793" height="1.793"/><rect class="cls-6" x="580.12899" y="30.468" width="1.793" height="5.379"/><rect class="cls-6" x="580.12899" y="35.846" width="1.793" height="3.586"/><rect class="cls-6" x="580.12899" y="43.018" width="1.793" height="1.793"/><rect class="cls-6" x="581.92199" y="1.782" width="1.793" height="1.793"/><rect class="cls-6" x="581.92199" y="5.367" width="1.793" height="1.793"/><rect class="cls-6" x="581.92199" y="8.953" width="1.793" height="1.793"/><rect class="cls-6" x="581.92199" y="14.332" width="1.793" height="5.379"/><rect class="cls-6" x="581.92199" y="21.503" width="1.793" height="1.793"/><rect class="cls-6" x="581.92199" y="32.26" width="1.793" height="1.793"/><rect class="cls-6" x="581.92199" y="35.846" width="1.793" height="1.793"/><rect class="cls-6" x="581.92199" y="41.225" width="1.793" height="3.586"/><rect class="cls-6" x="583.71499" y="1.782" width="1.793" height="5.379"/><rect class="cls-6" x="583.71499" y="8.953" width="1.793" height="1.793"/><rect class="cls-6" x="583.71499" y="10.746" width="1.793" height="1.793"/><rect class="cls-6" x="583.71499" y="14.332" width="1.793" height="1.793"/><rect class="cls-6" x="583.71499" y="17.917" width="1.793" height="1.793"/><rect class="cls-6" x="583.71499" y="21.503" width="1.793" height="1.793"/><rect class="cls-6" x="583.71499" y="26.882" width="1.793" height="1.793"/><rect class="cls-6" x="583.71499" y="34.053" width="1.793" height="1.793"/><rect class="cls-6" x="583.71499" y="41.225" width="1.793" height="1.793"/><rect class="cls-6" x="585.50799" width="1.793" height="3.574"/><rect class="cls-6" x="585.50799" y="5.367" width="1.793" height="1.793"/><rect class="cls-6" x="585.50799" y="8.953" width="1.793" height="1.793"/><rect class="cls-6" x="585.50799" y="12.539" width="1.793" height="1.793"/><rect class="cls-6" x="585.50799" y="16.125" width="1.793" height="3.586"/><rect class="cls-6" x="585.50799" y="19.71" width="1.793" height="3.586"/><rect class="cls-6" x="585.50799" y="28.675" width="1.793" height="1.793"/><rect class="cls-6" x="585.50799" y="30.468" width="1.793" height="1.793"/><rect class="cls-6" x="585.50799" y="34.053" width="1.793" height="1.793"/><rect class="cls-6" x="585.50799" y="35.846" width="1.793" height="1.793"/><rect class="cls-6" x="585.50799" y="39.432" width="1.793" height="1.793"/><rect class="cls-6" x="585.50799" y="41.225" width="1.793" height="3.586"/><rect class="cls-6" x="587.29999" y="0.001" width="1.793" height="1.781"/><rect class="cls-6" x="587.30099" y="3.574" width="1.793" height="1.793"/><rect class="cls-6" x="587.30099" y="8.953" width="1.793" height="1.793"/><rect class="cls-6" x="587.30099" y="10.746" width="1.793" height="7.172"/><rect class="cls-6" x="587.30099" y="23.296" width="1.793" height="1.793"/><rect class="cls-6" x="587.30099" y="26.882" width="1.793" height="3.586"/><rect class="cls-6" x="587.30099" y="32.26" width="1.793" height="1.793"/><rect class="cls-6" x="587.30099" y="37.639" width="1.793" height="1.793"/><rect class="cls-6" x="587.30099" y="41.225" width="1.793" height="3.586"/><rect class="cls-6" x="589.09299" width="1.793" height="7.16"/><rect class="cls-6" x="589.09299" y="12.539" width="1.793" height="1.793"/><rect class="cls-6" x="589.09299" y="16.125" width="1.793" height="3.586"/><rect class="cls-6" x="589.09299" y="25.089" width="1.793" height="1.793"/><rect class="cls-6" x="589.09299" y="28.675" width="1.793" height="1.793"/><rect class="cls-6" x="589.09299" y="32.26" width="1.793" height="3.586"/><rect class="cls-6" x="589.09299" y="35.846" width="1.793" height="5.379"/><rect class="cls-6" x="589.09299" y="41.225" width="1.793" height="3.586"/><rect class="cls-6" x="590.88599" y="8.953" width="1.793" height="1.793"/><rect class="cls-6" x="590.88599" y="10.746" width="1.793" height="3.586"/><rect class="cls-6" x="590.88599" y="16.125" width="1.793" height="1.793"/><rect class="cls-6" x="590.88599" y="23.296" width="1.793" height="3.586"/><rect class="cls-6" x="590.88599" y="37.639" width="1.793" height="1.793"/><rect class="cls-6" x="592.67899" y="3.574" width="1.793" height="1.793"/><rect class="cls-6" x="592.67899" y="16.125" width="1.793" height="3.586"/><rect class="cls-6" x="592.67899" y="21.503" width="1.793" height="5.379"/><rect class="cls-6" x="592.67899" y="30.468" width="1.793" height="1.793"/><rect class="cls-6" x="592.67899" y="34.053" width="1.793" height="1.793"/><rect class="cls-6" x="592.67899" y="35.846" width="1.793" height="3.586"/><rect class="cls-6" x="594.47199" y="1.782" width="1.793" height="8.964"/><rect class="cls-6" x="594.47199" y="10.746" width="1.793" height="5.379"/><rect class="cls-6" x="594.47199" y="19.71" width="1.793" height="1.793"/><rect class="cls-6" x="594.47199" y="23.296" width="1.793" height="1.793"/><rect class="cls-6" x="594.47199" y="26.882" width="1.793" height="3.586"/><rect class="cls-6" x="594.47199" y="30.468" width="1.793" height="5.379"/><rect class="cls-6" x="594.47199" y="35.846" width="1.793" height="5.379"/><rect class="cls-6" x="594.47199" y="43.018" width="1.793" height="1.793"/><rect class="cls-6" x="596.26499" y="14.332" width="1.793" height="1.793"/><rect class="cls-6" x="596.26499" y="23.296" width="1.793" height="1.793"/><rect class="cls-6" x="596.26499" y="28.675" width="1.793" height="1.793"/><rect class="cls-6" x="596.26499" y="35.846" width="1.793" height="5.379"/><rect class="cls-6" x="598.05799" y="0.001" width="1.793" height="10.745"/><rect class="cls-6" x="598.05799" y="10.746" width="1.793" height="1.793"/><rect class="cls-6" x="598.05799" y="17.917" width="1.793" height="1.793"/><rect class="cls-6" x="598.05799" y="19.71" width="1.793" height="3.586"/><rect class="cls-6" x="598.05799" y="25.089" width="1.793" height="1.793"/><rect class="cls-6" x="598.05799" y="28.675" width="1.793" height="1.793"/><rect class="cls-6" x="598.05799" y="32.26" width="1.793" height="1.793"/><rect class="cls-6" x="598.05799" y="35.846" width="1.793" height="3.586"/><rect class="cls-6" x="598.05799" y="41.225" width="1.793" height="3.586"/><rect class="cls-6" x="599.85099" y="0.001" width="1.793" height="1.781"/><rect class="cls-6" x="599.85099" y="10.746" width="1.793" height="1.793"/><rect class="cls-6" x="599.85099" y="16.125" width="1.793" height="1.793"/><rect class="cls-6" x="599.85099" y="21.503" width="1.793" height="1.793"/><rect class="cls-6" x="599.85099" y="26.882" width="1.793" height="3.586"/><rect class="cls-6" x="599.85099" y="35.846" width="1.793" height="1.793"/><rect class="cls-6" x="599.85099" y="41.225" width="1.793" height="1.793"/><rect class="cls-6" x="601.64399" y="0.001" width="1.793" height="1.781"/><rect class="cls-6" x="601.64399" y="3.574" width="1.793" height="5.379"/><rect class="cls-6" x="601.64399" y="10.746" width="1.793" height="1.793"/><rect class="cls-6" x="601.64399" y="14.332" width="1.793" height="3.586"/><rect class="cls-6" x="601.64399" y="19.71" width="1.793" height="1.793"/><rect class="cls-6" x="601.64399" y="23.296" width="1.793" height="3.586"/><rect class="cls-6" x="601.64399" y="28.675" width="1.793" height="1.793"/><rect class="cls-6" x="601.64399" y="30.468" width="1.793" height="5.379"/><rect class="cls-6" x="601.64399" y="35.846" width="1.793" height="1.793"/><rect class="cls-6" x="601.64399" y="39.432" width="1.793" height="1.793"/><rect class="cls-6" x="601.64399" y="41.225" width="1.793" height="1.793"/><rect class="cls-6" x="603.43699" y="0.001" width="1.793" height="1.781"/><rect class="cls-6" x="603.43599" y="3.574" width="1.793" height="5.379"/><rect class="cls-6" x="603.43599" y="10.746" width="1.793" height="1.793"/><rect class="cls-6" x="603.43599" y="16.125" width="1.793" height="3.586"/><rect class="cls-6" x="603.43599" y="19.71" width="1.793" height="1.793"/><rect class="cls-6" x="603.43599" y="25.089" width="1.793" height="3.586"/><rect class="cls-6" x="603.43599" y="39.432" width="1.793" height="1.793"/><rect class="cls-6" x="603.43599" y="43.018" width="1.793" height="1.793"/><rect class="cls-6" x="605.22899" y="0.001" width="1.793" height="1.781"/><rect class="cls-6" x="605.22899" y="3.574" width="1.793" height="5.379"/><rect class="cls-6" x="605.22899" y="10.746" width="1.793" height="1.793"/><rect class="cls-6" x="605.22899" y="14.332" width="1.793" height="3.586"/><rect class="cls-6" x="605.22899" y="19.71" width="1.793" height="1.793"/><rect class="cls-6" x="605.22899" y="25.089" width="1.793" height="5.379"/><rect class="cls-6" x="605.22899" y="30.468" width="1.793" height="1.793"/><rect class="cls-6" x="605.22899" y="39.432" width="1.793" height="1.793"/><rect class="cls-6" x="605.22899" y="41.225" width="1.793" height="1.793"/><rect class="cls-6" x="607.02199" y="0.001" width="1.793" height="1.781"/><rect class="cls-6" x="607.02199" y="10.746" width="1.793" height="1.793"/><rect class="cls-6" x="607.02199" y="14.332" width="1.793" height="3.586"/><rect class="cls-6" x="607.02199" y="19.71" width="1.793" height="1.793"/><rect class="cls-6" x="607.02199" y="23.296" width="1.793" height="3.586"/><rect class="cls-6" x="607.02199" y="28.675" width="1.793" height="1.793"/><rect class="cls-6" x="607.02199" y="30.468" width="1.793" height="1.793"/><rect class="cls-6" x="607.02199" y="35.846" width="1.793" height="5.379"/><rect class="cls-6" x="607.02199" y="41.225" width="1.793" height="1.793"/><rect class="cls-6" x="608.81499" y="0.001" width="1.793" height="10.745"/><rect class="cls-6" x="608.81499" y="10.746" width="1.793" height="1.793"/><rect class="cls-6" x="608.81499" y="14.332" width="1.793" height="1.793"/><rect class="cls-6" x="608.81499" y="17.917" width="1.793" height="1.793"/><rect class="cls-6" x="608.81499" y="19.71" width="1.793" height="3.586"/><rect class="cls-6" x="608.81499" y="25.089" width="1.793" height="3.586"/><rect class="cls-6" x="608.81499" y="32.26" width="1.793" height="1.793"/><rect class="cls-6" x="608.81499" y="35.846" width="1.793" height="5.379"/><rect class="cls-6" x="608.81499" y="41.225" width="1.793" height="3.586"/></g></g><g id="envelope"><path id="envelope-2" data-name="envelope" class="cls-7" d="M60.43353,30.26533a.15466.15466,0,0,1,.21447.02715.14878.14878,0,0,1,.03186.09021v5.10619a1.20926,1.20926,0,0,1-1.219,1.1985H48.89724a1.20925,1.20925,0,0,1-1.219-1.1985v-5.1037a.15066.15066,0,0,1,.15162-.14968.15354.15354,0,0,1,.09471.03233c.56891.43452,1.32311.98622,3.91336,2.83651a4.5733,4.5733,0,0,0,2.34139,1.18891,4.5694,4.5694,0,0,0,2.34392-1.18891C59.11373,31.25424,59.86539,30.69986,60.43353,30.26533Zm-6.25417,3.226c.5892.01,1.4374-.72869,1.86394-1.03378,3.37-2.405,3.62647-2.61407,4.40369-3.21332a.594.594,0,0,0,.234-.47192v-.47441a1.20926,1.20926,0,0,0-1.21936-1.1985H48.89724a1.20924,1.20924,0,0,0-1.219,1.1985v.47441a.59755.59755,0,0,0,.234.47192c.77663.59733,1.03368.80827,4.4031,3.21352C52.74215,32.76224,53.59036,33.50128,54.17936,33.49131Z" transform="translate(0 0.47256)"/></g><g id="globe"><path id="globe-2" data-name="globe" class="cls-7" d="M56.10747,12.72052c-.31554-1.94423-1.06023-3.30943-1.92674-3.30943s-1.61119,1.3652-1.92674,3.30943Zm-4.01675,2.09a13.64541,13.64541,0,0,0,.07192,1.39349h4.03425a13.55641,13.55641,0,0,0-.00022-2.787H52.16242A13.645,13.645,0,0,0,52.09072,14.81054Zm7.06938-2.09A5.41088,5.41088,0,0,0,55.72,9.63744a7.3465,7.3465,0,0,1,1.08853,3.08286ZM52.6393,9.63744a5.40721,5.40721,0,0,0-3.43772,3.08308h2.35135A7.31974,7.31974,0,0,1,52.6393,9.63765Zm6.75363,3.77961H56.89579c.04579.45722.07192.92525.07192,1.39349s-.02613.93626-.07192,1.39349h2.495a5.35324,5.35324,0,0,0,.18725-1.39349A5.44639,5.44639,0,0,0,59.39293,13.41705Zm-7.99831,1.39349c0-.468.02613-.93627.07192-1.39349h-2.498a5.27826,5.27826,0,0,0,0,2.78611h2.495C51.4201,15.7468,51.39462,15.27856,51.39462,14.81054Zm.86,2.09c.3149,1.94424,1.05959,3.30943,1.92609,3.30943s1.6112-1.36519,1.92674-3.30943Zm3.46753,3.08309a5.41609,5.41609,0,0,0,3.44009-3.08309H56.81069A7.3397,7.3397,0,0,1,55.72217,19.98364Zm-6.52059-3.08309a5.4109,5.4109,0,0,0,3.43988,3.08309,7.34632,7.34632,0,0,1-1.08853-3.08287H49.20158Z" transform="translate(0 0.47256)"/></g><g id="linkedin"><path id="linkedin-2" data-name="linkedin" class="cls-7" d="M298.37594,26.576h-9.77929a.81826.81826,0,0,0-.81211.82123v9.76355a.81827.81827,0,0,0,.81211.82124h9.77929a.82124.82124,0,0,0,.81462-.82124V27.39721A.82124.82124,0,0,0,298.37594,26.576Zm-7.144,9.77655h-1.69083V30.91027h1.69311v5.44226Zm-.84542-6.18662a.98092.98092,0,1,1,.98092-.98092h0A.98092.98092,0,0,1,290.38648,30.16591Zm7.18237,6.18662h-1.6906V33.70474c0-.63144-.01277-1.44355-.87826-1.44355-.881,0-1.01582.68733-1.01582,1.3977v2.69364h-1.6906V30.91027h1.62171v.74344h.02281a1.78071,1.78071,0,0,1,1.60254-.88032c1.71091,0,2.03027,1.12783,2.03027,2.59442Z" transform="translate(0 0.47256)"/></g></svg>