<svg id="Layer_1" data-name="Layer 1" xmlns="http://www.w3.org/2000/svg" xmlns:xlink="http://www.w3.org/1999/xlink" viewBox="0 0 612 90"><defs><style>.cls-1{fill:none;}.cls-10,.cls-2{fill:#192367;}.cls-3,.cls-4{fill:#d1479c;}.cls-4{font-size:28px;font-family:Raleway-Black, Raleway Black;font-weight:800;}.cls-5{letter-spacing:-0.00799em;}.cls-6{letter-spacing:-0.00701em;}.cls-7{letter-spacing:-0.02199em;}.cls-8{letter-spacing:-0.006em;}.cls-9{letter-spacing:-0.00302em;}.cls-10{font-size:18px;}.cls-10,.cls-15{font-family:Raleway-Regular, Raleway;}.cls-11{letter-spacing:-0.01101em;}.cls-12{letter-spacing:-0.02599em;}.cls-13{letter-spacing:-0.00003em;}.cls-14{letter-spacing:-0.02401em;}.cls-15{font-size:12px;fill:#663719;}.cls-16{letter-spacing:0.00895em;}.cls-17{letter-spacing:0.01001em;}.cls-18{letter-spacing:0.00903em;}.cls-19{letter-spacing:0.00993em;}.cls-20{letter-spacing:0.00708em;}.cls-21{letter-spacing:-0.00806em;}.cls-22{letter-spacing:0.00399em;}.cls-23{letter-spacing:0.00602em;}.cls-24{letter-spacing:0.01009em;}.cls-25{letter-spacing:0.007em;}.cls-26{letter-spacing:-0.01497em;}.cls-27{letter-spacing:-0.02604em;}.cls-28{letter-spacing:-0.01595em;}.cls-29{letter-spacing:0.00496em;}.cls-30{letter-spacing:-0.00195em;}.cls-31{letter-spacing:-0.01603em;}.cls-32{letter-spacing:-0.01506em;}.cls-33{letter-spacing:-0.00798em;}.cls-34{letter-spacing:-0.00301em;}.cls-35{letter-spacing:-0.03703em;}.cls-36{letter-spacing:0.00008em;}.cls-37{letter-spacing:0.02002em;}.cls-38{clip-path:url(#clip-path);}.cls-39{fill:url(#linear-gradient);}</style><clipPath id="clip-path"><rect class="cls-1" y="88.25" width="612" height="1.5"/></clipPath><linearGradient id="linear-gradient" x1="570.03157" y1="864.44898" x2="571.03157" y2="864.44898" gradientTransform="matrix(-613.20001, 0, 0, 613.20001, 350155.36308, -529991.12296)" gradientUnits="userSpaceOnUse"><stop offset="0" stop-color="#d27c47"/><stop offset="0.5385" stop-color="#d1479c"/><stop offset="0.59987" stop-color="#c8489f"/><stop offset="0.69992" stop-color="#b04ba9"/><stop offset="0.8262" stop-color="#8850b8"/><stop offset="0.97248" stop-color="#5256cd"/><stop offset="0.99636" stop-color="#4857d1"/><stop offset="1" stop-color="#4857d1"/></linearGradient></defs><path class="cls-2" d="M57.99644,9.8298c-6.479-.531-12.771,4.12805-15.911,11.204-2.693,5.312-2.823,14.124-3.149,20.302-.128,2.985-1.171,10.134-3.594,11.676-3.868,3.011-8.942-.254-8.108-5.796l-10.357-.004c.276,27.015,30.062,23.891,32.016-.963.252-3.212-3.323-10.857-2.355-19.836.837-7.763,5.723-16.88,12.315-16.537Z"/><path class="cls-3" d="M73.15274,26.6473c-1.953-18.95294-21.198-23.443-29.635-5.264-4.679,10.083.175,29.773-7.595,33.6-5.361,2.64-9.413-2.485-8.688-7.768-2.432,17.186,12.288,18.371,17.773,10.889,3.135-4.277,4.174-9.181,4.921-22.633.261-4.704,1.787-9.769,5.197-11.299,8.628-3.87,10.549,10.924,1.33,11.766l-.184,11.277c9.697.658,18.138-8.579,16.881-20.56806"/><text class="cls-4" transform="translate(83.51547 44.99989)"><tspan class="cls-5">J</tspan><tspan x="13.71973" y="0">ere</tspan><tspan class="cls-6" x="59.4707" y="0">m</tspan><tspan class="cls-7" x="85.59424" y="0">y</tspan><tspan x="100.51807" y="0" xml:space="preserve"> Pl</tspan><tspan class="cls-8" x="134.20166" y="0">a</tspan><tspan class="cls-9" x="150.80566" y="0">t</tspan><tspan x="162.56494" y="0">t</tspan></text><text class="cls-10" transform="translate(83.51547 66.59999)">U<tspan class="cls-11" x="13.58984" y="0">X</tspan><tspan x="24.76758" y="0" xml:space="preserve"> P</tspan><tspan class="cls-12" x="40.55322" y="0">r</tspan><tspan class="cls-13" x="46.40332" y="0">oduct Designe</tspan><tspan class="cls-14" x="167.81152" y="0">r</tspan><tspan x="173.69727" y="0" xml:space="preserve">  </tspan></text><text class="cls-15" transform="translate(292.51547 55.04482)"><tspan class="cls-16">D</tspan><tspan class="cls-17" x="8.6875" y="0">e</tspan><tspan class="cls-18" x="15.85156" y="0">s</tspan><tspan class="cls-17" x="21.80371" y="0">i</tspan><tspan class="cls-16" x="24.54004" y="0">gn</tspan><tspan class="cls-19" x="39.16797" y="0">i</tspan><tspan class="cls-16" x="41.90332" y="0">n</tspan><tspan class="cls-17" x="49.00684" y="0">g</tspan><tspan class="cls-20" x="56.54297" y="0"> </tspan><tspan class="cls-21" x="59.6875" y="0">e</tspan><tspan class="cls-17" x="66.63477" y="0">xpe</tspan><tspan class="cls-16" x="87.49121" y="0">r</tspan><tspan class="cls-17" x="91.81055" y="0">ien</tspan><tspan class="cls-22" x="108.82617" y="0">c</tspan><tspan class="cls-17" x="115.46191" y="0">es</tspan><tspan class="cls-23" x="128.58984" y="0"> </tspan><tspan class="cls-24" x="131.72168" y="0">t</tspan><tspan class="cls-16" x="135.8623" y="0">h</tspan><tspan class="cls-23" x="142.96582" y="0">a</tspan><tspan class="cls-17" x="149.57813" y="0">t</tspan><tspan class="cls-25" x="153.71777" y="0"> </tspan><tspan class="cls-17" x="156.86133" y="0">i</tspan><tspan class="cls-16" x="159.59766" y="0">ns</tspan><tspan class="cls-19" x="172.65332" y="0">pi</tspan><tspan class="cls-26" x="182.91309" y="0">r</tspan><tspan class="cls-17" x="186.94531" y="0">e</tspan><tspan class="cls-25" x="194.10938" y="0"> </tspan><tspan class="cls-17" x="197.25293" y="0">oppo</tspan><tspan class="cls-18" x="226.82031" y="0">r</tspan><tspan class="cls-17" x="231.14063" y="0">t</tspan><tspan class="cls-16" x="235.28027" y="0">un</tspan><tspan class="cls-19" x="249.62012" y="0">it</tspan><tspan class="cls-27" x="256.49609" y="0">y</tspan><tspan x="262.6875" y="0"> </tspan></text><text class="cls-15" transform="translate(292.51547 69.44472)"><tspan class="cls-18">and</tspan><tspan class="cls-17" x="21.32422" y="0"> </tspan><tspan class="cls-16" x="24.50391" y="0">c</tspan><tspan class="cls-28" x="31.19922" y="0">r</tspan><tspan class="cls-17" x="35.21973" y="0">e</tspan><tspan class="cls-29" x="42.38379" y="0">a</tspan><tspan class="cls-30" x="48.9834" y="0">t</tspan><tspan class="cls-17" x="52.97949" y="0">e f</tspan><tspan class="cls-31" x="67.40332" y="0">r</tspan><tspan class="cls-17" x="71.42285" y="0">ee</tspan><tspan class="cls-16" x="85.75098" y="0">d</tspan><tspan class="cls-17" x="93.32227" y="0">om </tspan><tspan class="cls-30" x="114.91016" y="0">t</tspan><tspan class="cls-17" x="118.90625" y="0">o </tspan><tspan class="cls-18" x="129.3457" y="0">g</tspan><tspan class="cls-32" x="136.87012" y="0">r</tspan><tspan class="cls-33" x="140.90137" y="0">o</tspan><tspan class="cls-28" x="147.94531" y="0">w</tspan><tspan class="cls-17" x="157.50977" y="0" xml:space="preserve"> th</tspan><tspan class="cls-26" x="171.94531" y="0">r</tspan><tspan class="cls-17" x="175.97754" y="0">o</tspan><tspan class="cls-16" x="183.2373" y="0">ugh</tspan><tspan class="cls-17" x="205.10059" y="0" xml:space="preserve"> pl</tspan><tspan class="cls-34" x="219.18848" y="0">a</tspan><tspan class="cls-35" x="225.69238" y="0">y</tspan><tspan class="cls-36" x="231.75195" y="0">.</tspan><tspan class="cls-37" x="234.02051" y="0"> </tspan><tspan x="237.32031" y="0"> </tspan></text><g class="cls-38"><rect class="cls-39" x="-0.00006" y="88.25" width="612.00006" height="1.50006"/></g></svg>