<svg id="Section:_Skills" role="img" data-name="Section: Skills" xmlns="http://www.w3.org/2000/svg" viewBox="0 0 69.82008 19.86258"><title>Skills</title><defs><style>.cls-1,.cls-2{fill:#192367;}.cls-2{font-size:18px;font-family:Raleway-Regular, Raleway;}</style></defs><path id="Network_Icon" data-name="Network Icon" class="cls-1" d="M20.35972,1.68331h-4.08a1.0204,1.0204,0,0,0-1.02,1.02v4.08a1.02045,1.02045,0,0,0,1.02,1.02h4.08a1.02045,1.02045,0,0,0,1.02-1.02v-4.08a1.0204,1.0204,0,0,0-1.02-1.02m-13.26,1.02a1.0204,1.0204,0,0,0-1.02-1.02h-4.08a1.0204,1.0204,0,0,0-1.02,1.02v4.08a1.02045,1.02045,0,0,0,1.02,1.02h3.051l2.332,4.081a2.03473,2.03473,0,0,1,1.757-1.021h.009l-2.049-3.586v-1.514h7.14v-2.04h-7.14Zm6.12,9.18h-4.08a1.02045,1.02045,0,0,0-1.02,1.02v4.08a1.02045,1.02045,0,0,0,1.02,1.02h4.08a1.02045,1.02045,0,0,0,1.02-1.02v-4.08a1.02045,1.02045,0,0,0-1.02-1.02" transform="translate(-0.97972 -1.68331)"/><text class="cls-2" transform="translate(22.28251 15.848)">Skills </text></svg>
