<svg id="Section:_Tools" data-name="Section: Tools" xmlns="http://www.w3.org/2000/svg" viewBox="0 0 67.15171 19.98776"><defs><style>.cls-1,.cls-2{fill:#192367;}.cls-2{font-size:18px;font-family:Raleway-Regular, Raleway;letter-spacing:-0.11301em;}.cls-3{letter-spacing:-0.00003em;}</style></defs><path id="Ruler_Pen_Icon" data-name="Ruler &amp; Pen Icon" class="cls-1" d="M19.21174,15.11234l-1.222-1.223-2.241,2.241a.28668.28668,0,0,1-.407,0l-.408-.407a.28851.28851,0,0,1,0-.407l2.241-2.241-1.603-1.604-4.89,4.889,3.641,3.64a1.15277,1.15277,0,0,0,1.63,0l3.259-3.259a1.15158,1.15158,0,0,0,0-1.629m-6.78-10.37-10.791,10.788-.681,3.904a.77076.77076,0,0,0,.893.892l3.904-.684,10.787-10.788Zm6.606,1.618a1.7452,1.7452,0,0,0,0-2.468l-1.644-1.644a1.74425,1.74425,0,0,0-2.468,0l-1.672,1.671,4.112,4.113Zm-14.113,4.243,4.889-4.889-1.603-1.603-2.24,2.241a.28756.28756,0,0,1-.407.001l-.001-.001-.407-.407a.28668.28668,0,0,1,0-.407l2.241-2.241-1.222-1.223a1.15282,1.15282,0,0,0-1.63,0l-3.259,3.26a1.15158,1.15158,0,0,0,0,1.629Z" transform="translate(-0.9479 -1.73685)"/><text class="cls-2" transform="translate(23.12508 15.97394)">T<tspan class="cls-3" x="8.9458" y="0">ools</tspan></text></svg>